#Comment line ignore any data following # character 
#Hierarchical Translation and Rotation (.htr) file 
[Header]	
#Header keywords are followed by a single value 
FileType HTR		#Single word string
DataType HTRS		#Translation followed by rotation and scale data
FileVersion 1		#integer
NumSegments 84		#integer
NumFrames 2		#integer
DataFrameRate 30		#integer, data frame rate in this file
EulerRotationOrder ZYX
CalibrationUnits mm
RotationUnits Degrees
GlobalAxisofGravity Y
BoneLengthAxis Y
ScaleFactor 1.00
[SegmentNames&Hierarchy]
#CHILD	PARENT
MASTER GLOBAL
root MASTER
chest root
L_mid_tent01 root
R_mid_tent01 root
spine01 root
Bip01_Neck chest
L_humerus chest
R_humerus chest
weapon_bone chest
Bip01_Head Bip01_Neck
eye_left_bone Bip01_Head
eye_right_bone Bip01_Head
L_forearm L_humerus
L_front_hand L_forearm
L_weapon_bone L_forearm
L_front_hand01_01 L_front_hand
L_front_hand02_01 L_front_hand
L_front_hand03_01 L_front_hand
L_front_hand01_02 L_front_hand01_01
L_front_hand02_02 L_front_hand02_01
L_front_hand03_02 L_front_hand03_01
R_forearm R_humerus
R_front_hand R_forearm
R_weapon_bone R_forearm
R_front_hand01_01 R_front_hand
R_front_hand02_01 R_front_hand
R_front_hand03_01 R_front_hand
R_front_hand01_02 R_front_hand01_01
R_front_hand02_02 R_front_hand02_01
R_front_hand03_02 R_front_hand03_01
null_rope01_connect L_mid_tent01
Rope1_Seg01 null_rope01_connect
Rope1_Seg02 Rope1_Seg01
Rope1_Seg03 Rope1_Seg02
Rope1_Seg04 Rope1_Seg03
Rope1_Seg05 Rope1_Seg04
Rope1_Seg06 Rope1_Seg05
Rope1_Seg07 Rope1_Seg06
Rope1_Seg09 Rope1_Seg07
L_mid_hand01 Rope1_Seg09
L_mid_hand02 Rope1_Seg09
L_mid_hand03 Rope1_Seg09
null_rope02_connect R_mid_tent01
Rope2_Seg01 null_rope02_connect
Rope2_Seg02 Rope2_Seg01
Rope2_Seg03 Rope2_Seg02
Rope2_Seg04 Rope2_Seg03
Rope2_Seg05 Rope2_Seg04
Rope2_Seg06 Rope2_Seg05
Rope2_Seg07 Rope2_Seg06
Rope2_Seg09 Rope2_Seg07
R_mid_hand01 Rope2_Seg09
R_mid_hand02 Rope2_Seg09
R_mid_hand03 Rope2_Seg09
spine02 spine01
spine03 spine02
pelvis spine03
null_rope03_connect pelvis
null_rope04_connect pelvis
Rope3_Seg01 null_rope03_connect
Rope3_Seg02 Rope3_Seg01
Rope3_Seg03 Rope3_Seg02
Rope3_Seg04 Rope3_Seg03
Rope3_Seg05 Rope3_Seg04
Rope3_Seg06 Rope3_Seg05
Rope3_Seg07 Rope3_Seg06
Rope3_Seg08 Rope3_Seg07
Rope3_Seg09 Rope3_Seg08
R_rear_hand01 Rope3_Seg09
R_rear_hand02 Rope3_Seg09
R_rear_hand03 Rope3_Seg09
Rope4_Seg01 null_rope04_connect
Rope4_Seg02 Rope4_Seg01
Rope4_Seg03 Rope4_Seg02
Rope4_Seg04 Rope4_Seg03
Rope4_Seg05 Rope4_Seg04
Rope4_Seg06 Rope4_Seg05
Rope4_Seg07 Rope4_Seg06
Rope4_Seg08 Rope4_Seg07
Rope4_Seg09 Rope4_Seg08
L_rear_hand01 Rope4_Seg09
L_rear_hand02 Rope4_Seg09
L_rear_hand03 Rope4_Seg09
[BasePosition]
#SegmentName Tx, Ty, Tz, Rx, Ry, Rz, BoneLength
MASTER 0.000000 0.000000 0.000000 -90.000000 0.000000 0.000000 10.000000 
root 0.000000 0.000000 0.000000 0.000000 0.000000 0.000000 10.000000 
chest 0.000000 0.000000 0.000000 0.000000 0.000000 0.000000 10.000000 
L_mid_tent01 0.000000 0.000000 0.000000 0.000000 0.000000 0.000000 10.000000 
R_mid_tent01 0.000000 0.000000 0.000000 0.000000 0.000000 0.000000 10.000000 
spine01 0.000000 0.000000 0.000000 0.000000 0.000000 0.000000 10.000000 
Bip01_Neck 0.000000 0.000000 0.000000 0.000000 0.000000 0.000000 10.000000 
L_humerus 0.000000 0.000000 0.000000 0.000000 0.000000 0.000000 10.000000 
R_humerus 0.000000 0.000000 0.000000 0.000000 0.000000 0.000000 10.000000 
weapon_bone 0.000000 0.000000 0.000000 0.000000 0.000000 0.000000 10.000000 
Bip01_Head 0.000000 0.000000 0.000000 0.000000 0.000000 0.000000 10.000000 
eye_left_bone 0.000000 0.000000 0.000000 0.000000 0.000000 0.000000 10.000000 
eye_right_bone 0.000000 0.000000 0.000000 0.000000 0.000000 0.000000 10.000000 
L_forearm 0.000000 0.000000 0.000000 0.000000 0.000000 0.000000 10.000000 
L_front_hand 0.000000 0.000000 0.000000 0.000000 0.000000 0.000000 10.000000 
L_weapon_bone 0.000000 0.000000 0.000000 0.000000 0.000000 0.000000 10.000000 
L_front_hand01_01 0.000000 0.000000 0.000000 0.000000 0.000000 0.000000 10.000000 
L_front_hand02_01 0.000000 0.000000 0.000000 0.000000 0.000000 0.000000 10.000000 
L_front_hand03_01 0.000000 0.000000 0.000000 0.000000 0.000000 0.000000 10.000000 
L_front_hand01_02 0.000000 0.000000 0.000000 0.000000 0.000000 0.000000 10.000000 
L_front_hand02_02 0.000000 0.000000 0.000000 0.000000 0.000000 0.000000 10.000000 
L_front_hand03_02 0.000000 0.000000 0.000000 0.000000 0.000000 0.000000 10.000000 
R_forearm 0.000000 0.000000 0.000000 0.000000 0.000000 0.000000 10.000000 
R_front_hand 0.000000 0.000000 0.000000 0.000000 0.000000 0.000000 10.000000 
R_weapon_bone 0.000000 0.000000 0.000000 0.000000 0.000000 0.000000 10.000000 
R_front_hand01_01 0.000000 0.000000 0.000000 0.000000 0.000000 0.000000 10.000000 
R_front_hand02_01 0.000000 0.000000 0.000000 0.000000 0.000000 0.000000 10.000000 
R_front_hand03_01 0.000000 0.000000 0.000000 0.000000 0.000000 0.000000 10.000000 
R_front_hand01_02 0.000000 0.000000 0.000000 0.000000 0.000000 0.000000 10.000000 
R_front_hand02_02 0.000000 0.000000 0.000000 0.000000 0.000000 0.000000 10.000000 
R_front_hand03_02 0.000000 0.000000 0.000000 0.000000 0.000000 0.000000 10.000000 
null_rope01_connect 0.000000 0.000000 0.000000 0.000000 0.000000 0.000000 10.000000 
Rope1_Seg01 0.000000 0.000000 0.000000 0.000000 0.000000 0.000000 10.000000 
Rope1_Seg02 0.000000 0.000000 0.000000 0.000000 0.000000 0.000000 10.000000 
Rope1_Seg03 0.000000 0.000000 0.000000 0.000000 0.000000 0.000000 10.000000 
Rope1_Seg04 0.000000 0.000000 0.000000 0.000000 0.000000 0.000000 10.000000 
Rope1_Seg05 0.000000 0.000000 0.000000 0.000000 0.000000 0.000000 10.000000 
Rope1_Seg06 0.000000 0.000000 0.000000 0.000000 0.000000 0.000000 10.000000 
Rope1_Seg07 0.000000 0.000000 0.000000 0.000000 0.000000 0.000000 10.000000 
Rope1_Seg09 0.000000 0.000000 0.000000 0.000000 0.000000 0.000000 10.000000 
L_mid_hand01 0.000000 0.000000 0.000000 0.000000 0.000000 0.000000 10.000000 
L_mid_hand02 0.000000 0.000000 0.000000 0.000000 0.000000 0.000000 10.000000 
L_mid_hand03 0.000000 0.000000 0.000000 0.000000 0.000000 0.000000 10.000000 
null_rope02_connect 0.000000 0.000000 0.000000 0.000000 0.000000 0.000000 10.000000 
Rope2_Seg01 0.000000 0.000000 0.000000 0.000000 0.000000 0.000000 10.000000 
Rope2_Seg02 0.000000 0.000000 0.000000 0.000000 0.000000 0.000000 10.000000 
Rope2_Seg03 0.000000 0.000000 0.000000 0.000000 0.000000 0.000000 10.000000 
Rope2_Seg04 0.000000 0.000000 0.000000 0.000000 0.000000 0.000000 10.000000 
Rope2_Seg05 0.000000 0.000000 0.000000 0.000000 0.000000 0.000000 10.000000 
Rope2_Seg06 0.000000 0.000000 0.000000 0.000000 0.000000 0.000000 10.000000 
Rope2_Seg07 0.000000 0.000000 0.000000 0.000000 0.000000 0.000000 10.000000 
Rope2_Seg09 0.000000 0.000000 0.000000 0.000000 0.000000 0.000000 10.000000 
R_mid_hand01 0.000000 0.000000 0.000000 0.000000 0.000000 0.000000 10.000000 
R_mid_hand02 0.000000 0.000000 0.000000 0.000000 0.000000 0.000000 10.000000 
R_mid_hand03 0.000000 0.000000 0.000000 0.000000 0.000000 0.000000 10.000000 
spine02 0.000000 0.000000 0.000000 0.000000 0.000000 0.000000 10.000000 
spine03 0.000000 0.000000 0.000000 0.000000 0.000000 0.000000 10.000000 
pelvis 0.000000 0.000000 0.000000 0.000000 0.000000 0.000000 10.000000 
null_rope03_connect 0.000000 0.000000 0.000000 0.000000 0.000000 0.000000 10.000000 
null_rope04_connect 0.000000 0.000000 0.000000 0.000000 0.000000 0.000000 10.000000 
Rope3_Seg01 0.000000 0.000000 0.000000 0.000000 0.000000 0.000000 10.000000 
Rope3_Seg02 0.000000 0.000000 0.000000 0.000000 0.000000 0.000000 10.000000 
Rope3_Seg03 0.000000 0.000000 0.000000 0.000000 0.000000 0.000000 10.000000 
Rope3_Seg04 0.000000 0.000000 0.000000 0.000000 0.000000 0.000000 10.000000 
Rope3_Seg05 0.000000 0.000000 0.000000 0.000000 0.000000 0.000000 10.000000 
Rope3_Seg06 0.000000 0.000000 0.000000 0.000000 0.000000 0.000000 10.000000 
Rope3_Seg07 0.000000 0.000000 0.000000 0.000000 0.000000 0.000000 10.000000 
Rope3_Seg08 0.000000 0.000000 0.000000 0.000000 0.000000 0.000000 10.000000 
Rope3_Seg09 0.000000 0.000000 0.000000 0.000000 0.000000 0.000000 10.000000 
R_rear_hand01 0.000000 0.000000 0.000000 0.000000 0.000000 0.000000 10.000000 
R_rear_hand02 0.000000 0.000000 0.000000 0.000000 0.000000 0.000000 10.000000 
R_rear_hand03 0.000000 0.000000 0.000000 0.000000 0.000000 0.000000 10.000000 
Rope4_Seg01 0.000000 0.000000 0.000000 0.000000 0.000000 0.000000 10.000000 
Rope4_Seg02 0.000000 0.000000 0.000000 0.000000 0.000000 0.000000 10.000000 
Rope4_Seg03 0.000000 0.000000 0.000000 0.000000 0.000000 0.000000 10.000000 
Rope4_Seg04 0.000000 0.000000 0.000000 0.000000 0.000000 0.000000 10.000000 
Rope4_Seg05 0.000000 0.000000 0.000000 0.000000 0.000000 0.000000 10.000000 
Rope4_Seg06 0.000000 0.000000 0.000000 0.000000 0.000000 0.000000 10.000000 
Rope4_Seg07 0.000000 0.000000 0.000000 0.000000 0.000000 0.000000 10.000000 
Rope4_Seg08 0.000000 0.000000 0.000000 0.000000 0.000000 0.000000 10.000000 
Rope4_Seg09 0.000000 0.000000 0.000000 0.000000 0.000000 0.000000 10.000000 
L_rear_hand01 0.000000 0.000000 0.000000 0.000000 0.000000 0.000000 10.000000 
L_rear_hand02 0.000000 0.000000 0.000000 0.000000 0.000000 0.000000 10.000000 
L_rear_hand03 0.000000 0.000000 0.000000 0.000000 0.000000 0.000000 10.000000 
#Beginning of Data. Separated by tabs
#Fr	Tx	Ty	Tz	Rx	Ry	Rz	SF
[MASTER]
11 0.000000 0.000000 0.000000 0.001660 0.001660 0.001660 0.000000
12 0.000000 0.000000 0.000000 0.001660 0.001660 0.001660 0.000000
[root]
11 -37.691078 -52.072372 1502.598022 -116.928452 -23.805141 -94.137123 1503.972290
12 -37.499794 -52.746017 1502.574707 -119.763176 -24.410755 -93.236206 1503.967773
[chest]
11 -84.512650 -34.090519 0.000000 -7.039182 8.217453 150.007034 91.129311
12 -84.512650 -34.090519 0.000000 -8.589448 9.641714 152.537415 91.129311
[L_mid_tent01]
11 27.299145 22.179106 -249.918716 2.159036 -1.488814 78.768600 252.381699
12 27.299149 22.179106 -249.918716 2.222081 -0.204923 78.856323 252.381699
[R_mid_tent01]
11 23.228794 24.509907 226.238495 165.900940 -1.153129 72.679306 228.744751
12 23.228794 24.509907 226.238495 166.006729 -2.501695 72.905396 228.744751
[spine01]
11 -0.361383 -0.195265 0.000000 0.002062 0.001122 32.879829 0.410763
12 -0.361383 -0.195265 0.000000 0.002062 0.001122 32.879829 0.410763
[Bip01_Neck]
11 165.484543 71.581718 0.000119 176.643677 -1.657967 43.431911 180.302734
12 165.484543 71.581718 0.000119 176.643677 -1.657967 43.431911 180.302734
[L_humerus]
11 -13.983130 -135.272980 -120.471481 163.979813 25.218008 -65.928123 181.680161
12 -13.983130 -135.272980 -120.471481 162.769058 21.894840 -66.003838 181.680161
[R_humerus]
11 -13.983309 -135.273102 125.287651 -177.997543 -17.846952 -84.745300 184.909012
12 -13.983309 -135.273102 125.287651 -176.955414 -11.787663 -86.163353 184.909012
[weapon_bone]
11 235.964890 -300.705902 0.000000 0.000000 -89.951546 -128.212341 382.234833
12 235.964890 -300.705902 0.000000 0.000000 -89.951546 -128.212341 382.234833
[Bip01_Head]
11 213.444214 185.715546 11.776937 15.658122 2.964194 -43.898182 283.173767
12 213.444229 185.715546 11.776937 16.727221 2.989152 -43.896076 283.173798
[eye_left_bone]
11 -24.626970 125.451866 -64.772606 0.000000 -90.000000 -99.840431 143.318359
12 -24.626970 125.451866 -64.772606 0.000000 -90.000000 -99.840431 143.318359
[eye_right_bone]
11 -24.626970 125.451866 64.327362 0.000000 -89.965736 80.156380 143.117676
12 -24.626970 125.451866 64.327362 0.000000 -89.980217 80.156387 143.117676
[L_forearm]
11 322.776093 0.000000 -0.000119 0.000396 -0.002314 -109.419975 322.776093
12 322.776093 0.000000 -0.000119 0.000396 -0.002314 -109.419975 322.776093
[L_front_hand]
11 241.149185 -0.042021 -3.300071 -178.667953 -1.835447 -27.422342 241.171753
12 241.149185 -0.042021 -3.300071 -178.667953 -1.835447 -27.422350 241.171753
[L_weapon_bone]
11 156.183838 0.000000 0.000000 0.000014 0.000007 0.000001 156.183838
12 156.183838 0.000000 0.000000 0.000014 0.000007 0.000001 156.183838
[L_front_hand01_01]
11 86.095154 20.947098 -0.655860 -0.274961 -0.532613 65.343315 88.609184
12 86.095154 20.947098 -0.655860 -0.273295 -0.533469 64.985298 88.609184
[L_front_hand02_01]
11 86.935165 -11.437475 24.513514 141.160873 -54.480900 -45.657181 91.046425
12 86.935165 -11.437475 24.513514 140.772385 -54.262844 -45.183468 91.046425
[L_front_hand03_01]
11 86.637497 -14.123976 -20.424902 -141.544479 52.711880 -47.720146 90.126129
12 86.637497 -14.123976 -20.424902 -141.183044 52.494118 -47.265888 90.126129
[L_front_hand01_02]
11 71.020905 -0.000179 0.000030 0.000315 -0.002326 -105.427895 71.020905
12 71.020905 -0.000179 0.000030 0.000315 -0.002326 -105.406754 71.020905
[L_front_hand02_02]
11 71.020927 -0.000119 0.000060 0.000315 -0.002326 -105.427895 71.020927
12 71.020927 -0.000119 0.000060 0.000315 -0.002326 -105.406754 71.020927
[L_front_hand03_02]
11 71.020905 -0.000060 0.000060 0.000315 -0.002326 -105.427895 71.020905
12 71.020905 -0.000060 0.000060 0.000315 -0.002326 -105.406754 71.020905
[R_forearm]
11 322.776428 -0.000060 0.000030 0.202103 0.065158 -108.062805 322.776428
12 322.776428 -0.000060 0.000030 0.202103 0.065158 -108.062805 322.776428
[R_front_hand]
11 238.847015 -0.006795 2.210259 -2.635298 -10.645461 -26.312506 238.857239
12 238.847015 -0.006795 2.210259 -2.635298 -10.645461 -26.312506 238.857239
[R_weapon_bone]
11 155.664093 0.002503 -0.000030 0.003487 0.001180 -90.988930 155.664078
12 155.664093 0.002503 -0.000030 0.003487 0.001180 -90.988930 155.664078
[R_front_hand01_01]
11 87.624611 14.231146 22.918642 -140.869583 -54.308788 45.406178 91.683487
12 87.624611 14.231146 22.918642 -139.581696 -53.528687 43.812485 91.683487
[R_front_hand02_01]
11 89.356956 14.367283 -19.491137 141.602859 52.728153 48.028038 92.579636
12 89.356956 14.367283 -19.491137 140.375320 51.957638 46.474533 92.579636
[R_front_hand03_01]
11 87.286232 -22.307278 -0.143439 0.081591 -0.445045 -65.308609 90.091743
12 87.286232 -22.307278 -0.143439 0.072643 -0.448515 -64.085037 90.091743
[R_front_hand01_02]
11 71.020905 0.000060 0.000119 0.002323 -0.000334 106.381714 71.020905
12 71.020905 0.000060 0.000119 0.002323 -0.000334 106.381714 71.020905
[R_front_hand02_02]
11 71.020844 -0.000030 -0.000119 0.002323 -0.000334 106.381714 71.020836
12 71.020844 -0.000030 -0.000119 0.002323 -0.000334 106.381714 71.020836
[R_front_hand03_02]
11 71.020905 0.000000 0.000030 0.002323 -0.000334 106.381714 71.020905
12 71.020905 0.000000 0.000030 0.002323 -0.000334 106.381714 71.020905
[null_rope01_connect]
11 328.732483 0.000000 -0.000238 -144.722824 -62.707436 179.353821 328.732483
12 328.732483 0.000000 -0.000238 -146.405914 -59.117924 -178.218582 328.732483
[Rope1_Seg01]
11 -0.000031 0.000024 0.000096 174.237137 33.749989 -133.047775 0.000104
12 -0.000030 0.000023 0.000090 -136.921814 39.046310 -121.507935 0.000098
[Rope1_Seg02]
11 139.999863 -0.000179 0.000000 12.219768 -0.598724 -3.455185 139.999863
12 139.999863 -0.000179 0.000000 3.721323 0.619876 -1.967545 139.999863
[Rope1_Seg03]
11 139.999924 0.000060 -0.000060 24.815069 -2.034264 -5.005330 139.999924
12 139.999924 0.000060 -0.000060 6.234293 0.813690 -2.628965 139.999924
[Rope1_Seg04]
11 139.999924 -0.000060 -0.000119 27.958582 -4.389815 -4.141861 139.999924
12 139.999924 -0.000060 -0.000119 15.817071 1.912949 -4.583048 139.999924
[Rope1_Seg05]
11 139.999832 0.000119 -0.000060 -22.289694 4.778876 1.239251 139.999832
12 139.999832 0.000119 -0.000060 33.569752 -4.418660 -2.205283 139.999832
[Rope1_Seg06]
11 139.999954 0.000119 -0.000060 -11.684601 1.881214 1.410254 139.999954
12 139.999954 0.000119 -0.000060 4.285885 -2.099154 1.116074 139.999954
[Rope1_Seg07]
11 139.999985 0.000060 0.000000 -5.094430 0.699858 0.782441 139.999985
12 139.999985 0.000060 0.000000 2.882554 -1.079612 0.305977 139.999985
[Rope1_Seg09]
11 121.602913 0.000119 -0.000089 -89.793175 -1.359789 0.847147 121.602913
12 121.602913 0.000119 -0.000089 -89.793175 -1.359789 0.847147 121.602913
[L_mid_hand01]
11 103.859421 1.038730 8.195221 111.744148 -47.990253 -17.037851 104.187431
12 103.859421 1.038730 8.195221 113.978653 -52.407169 -19.945959 104.187431
[L_mid_hand02]
11 105.572853 -4.139662 -10.864139 -151.194321 35.548134 -46.000305 106.211075
12 105.572853 -4.139662 -10.864139 -154.369171 37.743828 -51.312630 106.211075
[L_mid_hand03]
11 104.641464 17.579376 -3.913581 -12.464004 14.143583 51.774380 106.179977
12 104.641464 17.579376 -3.913581 -11.237706 15.131418 56.621048 106.179977
[null_rope02_connect]
11 328.732849 0.000179 -0.000119 4.135561 57.084030 147.429810 328.732849
12 328.732849 0.000179 -0.000119 3.523690 55.657776 146.485550 328.732849
[Rope2_Seg01]
11 -0.000008 0.000105 0.000000 106.603027 41.847599 -121.999161 0.000105
12 -0.000017 0.000104 0.000000 106.218132 42.261658 -122.842712 0.000105
[Rope2_Seg02]
11 139.999741 -0.000060 -0.000119 -1.759430 -5.922041 8.023618 139.999756
12 139.999741 -0.000060 -0.000119 -1.788580 -6.030594 8.330145 139.999756
[Rope2_Seg03]
11 140.000107 0.000030 0.000000 -1.113374 -7.477522 8.905684 140.000107
12 140.000107 0.000030 0.000000 -1.269243 -8.626365 10.612554 140.000107
[Rope2_Seg04]
11 139.999802 0.000000 -0.000060 -1.031889 -15.932631 11.400865 139.999802
12 139.999802 0.000000 -0.000060 -1.095476 -18.935543 15.918227 139.999802
[Rope2_Seg05]
11 139.999985 -0.000060 0.000119 1.798528 2.233404 4.802283 139.999985
12 139.999985 -0.000060 0.000119 2.837458 4.847912 4.490189 139.999985
[Rope2_Seg06]
11 139.999893 -0.000030 -0.000119 0.304667 24.639688 -2.437813 139.999893
12 139.999893 -0.000030 -0.000119 -1.649768 29.572800 -8.553867 139.999893
[Rope2_Seg07]
11 139.999893 0.000060 -0.000060 -1.639012 16.746361 -1.364491 139.999893
12 139.999893 0.000060 -0.000060 -1.425820 15.107520 -3.161401 139.999893
[Rope2_Seg09]
11 121.338966 0.000089 -0.000060 33.793236 -1.359788 -0.847141 121.338966
12 121.338966 0.000089 -0.000060 33.793236 -1.359788 -0.847141 121.338966
[R_mid_hand01]
11 104.680779 11.144459 -10.335981 -36.871494 32.306065 38.202831 105.778534
12 104.680779 11.144459 -10.335981 -37.204075 31.906813 37.576267 105.778534
[R_mid_hand02]
11 104.070427 2.443552 8.231699 70.157990 -43.050724 14.375074 104.424065
12 104.070427 2.443552 8.231699 70.367462 -42.427391 14.067811 104.424065
[R_mid_hand03]
11 106.028137 -11.221827 -5.996406 -170.040359 12.343991 -47.884888 106.788818
12 106.028137 -11.221827 -5.996406 -169.893616 12.226659 -47.211018 106.788818
[spine02]
11 129.756927 0.001550 0.000119 0.360061 -4.044797 -12.915058 129.756927
12 129.756927 0.001550 0.000119 0.360061 -4.044798 -12.915059 129.756927
[spine03]
11 78.614067 0.081635 -4.899009 1.896495 3.831288 16.473045 78.766602
12 78.614067 0.081635 -4.899010 1.896495 3.831288 16.473045 78.766602
[pelvis]
11 169.435242 0.051022 0.000000 -0.060465 -0.180225 14.087930 169.435257
12 169.435242 0.051022 0.000000 -0.060465 -0.180225 14.087930 169.435257
[null_rope03_connect]
11 -1.257226 -2.466202 137.391083 -148.141678 -62.173321 -149.348816 137.418976
12 -1.257226 -2.466202 137.391083 -149.742310 -59.798935 -147.016953 137.418976
[null_rope04_connect]
11 -1.259640 -2.480268 -137.844437 -148.141678 -62.173321 -149.348816 137.872513
12 -1.259640 -2.480268 -137.844437 -149.742310 -59.798935 -147.016953 137.872513
[Rope3_Seg01]
11 0.000010 0.000024 -0.000096 -159.139252 32.452263 -124.881882 0.000099
12 0.000010 0.000023 -0.000090 -151.987167 31.005739 -116.089272 0.000094
[Rope3_Seg02]
11 139.999924 -0.000119 0.000060 1.429435 0.966066 -0.782619 139.999924
12 139.999924 -0.000119 0.000060 1.823581 5.076410 5.099655 139.999924
[Rope3_Seg03]
11 139.999924 -0.000119 0.000119 2.726661 1.923209 -1.530924 139.999924
12 139.999924 -0.000119 0.000119 3.690158 6.916619 6.573308 139.999924
[Rope3_Seg04]
11 139.999924 0.000119 0.000000 12.318956 9.815858 -7.997190 139.999924
12 139.999924 0.000119 0.000000 22.982483 15.214640 12.942537 139.999924
[Rope3_Seg05]
11 139.999924 -0.000238 0.000060 -5.266527 -53.407101 -17.935810 139.999924
12 139.999924 -0.000238 0.000060 -6.324088 -2.771639 -0.613165 139.999924
[Rope3_Seg06]
11 139.999893 -0.000119 -0.000060 2.226064 -13.161826 -7.165859 139.999893
12 139.999893 -0.000119 -0.000060 -16.286459 -31.718954 -15.424613 139.999893
[Rope3_Seg07]
11 139.999771 0.000060 -0.000119 1.004921 -2.958382 -1.488847 139.999771
12 139.999771 0.000060 -0.000119 0.174295 -15.272861 -15.165297 139.999771
[Rope3_Seg08]
11 139.999985 -0.000060 0.000000 0.535794 0.001623 0.001637 139.999985
12 139.999985 -0.000060 0.000000 0.610052 -7.656097 -7.891938 139.999985
[Rope3_Seg09]
11 90.185997 -0.000179 -0.000060 89.793228 -1.359877 -0.847183 90.185997
12 90.185997 -0.000179 -0.000060 89.793228 -1.359877 -0.847183 90.185997
[R_rear_hand01]
11 103.366196 -6.073594 -10.757982 -164.755127 19.627697 -40.352165 104.101845
12 103.366196 -6.073594 -10.757982 -165.227371 19.974682 -41.735714 104.101845
[R_rear_hand02]
11 100.509819 12.039542 -7.992327 -30.792648 24.782450 38.141548 101.543350
12 100.509819 12.039542 -7.992327 -30.246428 25.466440 39.424965 101.543350
[R_rear_hand03]
11 101.539970 5.215704 5.435467 82.448357 -41.048260 8.840381 101.819031
12 101.539970 5.215704 5.435467 82.286613 -42.384159 9.080281 101.819031
[Rope4_Seg01]
11 0.000010 0.000038 -0.000114 30.280264 26.412102 -141.428665 0.000121
12 0.000010 0.000038 -0.000114 30.523088 13.624473 -150.725754 0.000121
[Rope4_Seg02]
11 139.999985 0.000060 0.000119 3.923358 0.887552 10.970525 139.999985
12 139.999985 0.000060 0.000119 3.637650 13.807160 11.144103 139.999985
[Rope4_Seg03]
11 139.999924 0.000000 -0.000238 3.923653 4.961082 17.544739 139.999924
12 139.999924 0.000000 -0.000238 2.700292 17.086210 12.490883 139.999924
[Rope4_Seg04]
11 139.999985 0.000000 0.000119 0.978597 4.670258 16.007341 139.999985
12 139.999985 0.000000 0.000119 1.325694 17.108425 11.603662 139.999985
[Rope4_Seg05]
11 139.999802 -0.000060 -0.000119 2.487494 -22.718077 -13.701394 139.999802
12 139.999802 -0.000060 -0.000119 -0.092827 -2.357977 -0.456477 139.999802
[Rope4_Seg06]
11 139.999924 0.000000 0.000060 0.529752 -21.218723 -13.198537 139.999924
12 139.999924 0.000000 0.000060 2.432942 -21.186588 -11.769793 139.999924
[Rope4_Seg07]
11 139.999802 0.000000 0.000000 -0.807105 -11.365508 -6.372803 139.999802
12 139.999802 0.000000 0.000000 1.286795 -17.464363 -9.132143 139.999802
[Rope4_Seg08]
11 139.999924 0.000000 0.000119 -2.457412 -4.429347 -2.601579 139.999924
12 139.999924 0.000000 0.000119 -1.281096 -10.083256 -5.060807 139.999924
[Rope4_Seg09]
11 90.185791 0.000060 0.000060 -135.617828 2.228885 0.850567 90.185791
12 90.185791 0.000060 0.000060 -135.617828 2.228885 0.850567 90.185791
[L_rear_hand01]
11 101.696655 -8.392275 -7.654577 -25.094696 -30.551710 129.636383 102.329041
12 101.696655 -8.392275 -7.654577 -22.523619 -32.400753 124.716125 102.329041
[L_rear_hand02]
11 102.726799 -1.568258 5.773216 80.482063 53.171062 168.494080 102.900848
12 102.726799 -1.568258 5.773216 79.320564 57.684704 167.079819 102.900848
[L_rear_hand03]
11 104.552910 9.721220 -10.420293 -169.363434 -22.386320 -126.848648 105.519653
12 104.552910 9.721220 -10.420293 -171.262482 -23.156818 -121.951225 105.519653
